Format                                   : Flash Video
File size                                : 164 MiB
Duration                                 : 51mn 16s
Overall bit rate                         : 447 Kbps
httphostheader                           :

Video
Format                                   : AVC
Format/Info                              : Advanced Video Codec
Format profile                           : Main@L1.3
Format settings, CABAC                   : Yes
Format settings, ReFrames                : 3 frames
Codec ID                                 : 7
Duration                                 : 51mn 16s
Bit rate                                 : 352 Kbps
Width                                    : 352 pixels
Height                                   : 288 pixels
Display aspect ratio                     : 1.222
Frame rate mode                          : Constant
Frame rate                               : 25.000 fps
Standard                                 : PAL
Color space                              : YUV
Chroma subsampling                       : 4:2:0
Bit depth                                : 8 bits
Scan type                                : Progressive
Bits/(Pixel*Frame)                       : 0.139
Stream size                              : 129 MiB (79%)

Audio
Format                                   : AAC
Format/Info                              : Advanced Audio Codec
Format profile                           : LC
Codec ID                                 : 10
Duration                                 : 51mn 16s
Bit rate                                 : 87.4 Kbps
Channel(s)                               : 2 channels
Channel positions                        : Front: L R
Sampling rate                            : 44.1 KHz
Compression mode                         : Lossy
Stream size                              : 32.1 MiB (20%)


